# xmcd
#
# Track frame offsets: 
#        150
#        13887
#        29571
#        43298
#        58383
#        75497
#        88768
#        104504
#        115119
#        133981
#        148182
#        166189
#        181935
#
# Disc length: 2676 seconds
#
# Revision: 0
# Processed by: cddbd v1.5.2PL0 Copyright (c) Steve Scherf et al.
# Submitted via: ExactAudioCopy v1.0b1
#
DISCID=bd0a720d
DTITLE=Keb Mo' - Keb Mo' - MoFi
DYEAR=1994
DGENRE=Blues
TTITLE0=Every Morning
TTITLE1=Tell Everybody I Know
TTITLE2=Love Blues
TTITLE3=Victims of Comfort
TTITLE4=Angelina
TTITLE5=Anybody Seen My Girl
TTITLE6=She Just Wants to Dance
TTITLE7=Am I Wrong
TTITLE8=Come On In My Kitchen
TTITLE9=Dirty Low Down and Bad
TTITLE10=Don't Try to Explain
TTITLE11=Kindhearted Woman Blues
TTITLE12=City Boy
EXTD=
EXTT0=
EXTT1=
EXTT2=
EXTT3=
EXTT4=
EXTT5=
EXTT6=
EXTT7=
EXTT8=
EXTT9=
EXTT10=
EXTT11=
EXTT12=
PLAYORDER=
